# xmcd
#
# Track frame offsets:
#	150
#	9154
#	23175
#	43316
#	58054
#	72111
#	80408
#	101776
#	111824
#	128693
#
# Disc length: 1854 seconds
#
# Revision: 0
# Processed by: cddbd v1.5.1PL0 Copyright (c) Steve Scherf et al.
# Submitted via: dBpowerAMP V4.0
#
DISCID=7e073c0a
DTITLE=Toney Brothers - Just Passing Through
DYEAR=2000
DGENRE=Gospel
TTITLE0=Just Passing Through
TTITLE1=He's Not There Anymore
TTITLE2=Nothing But The Blood
TTITLE3=I'm Going Home
TTITLE4=The Red Of His Blood
TTITLE5=It's Not Who I Am
TTITLE6=See the Lights
TTITLE7=Just Look Up
TTITLE8=One Of God's Children Is Gone
TTITLE9=You Ain't Seen Nothing Yet
EXTD=
EXTT0=
EXTT1=
EXTT2=
EXTT3=
EXTT4=
EXTT5=
EXTT6=
EXTT7=
EXTT8=
EXTT9=
PLAYORDER=
